# xmcd
#
# Track frame offsets:
#	150
#	26609
#	51473
#	71491
#	92305
#	114505
#	137759
#	165497
#	196243
#	216247
#
# Disc length: 3240 seconds
#
# Revision: 2
# Processed by: cddbd v1.5.2PL0 Copyright (c) Steve Scherf et al.
# Submitted via: EZCDAudioConverter 8.0.2.1
#
DISCID=870ca60a
DTITLE=Trường Vũ - Phố vắng
DYEAR=1998
DGENRE=blues
TTITLE0=Trường Vũ - Chắp tay lạy người
TTITLE1=Trường Vũ - Giấc mơ địa đàng
TTITLE2=Trường Vũ - Trăng thanh bình
TTITLE3=Trường Vũ - Phố vắng
TTITLE4=Trường Vũ and Hồng Trúc - Mất nhau rồi
TTITLE5=Trường Vũ - Có bao giờ
TTITLE6=Trường Vũ - Đêm kỷ niệm
TTITLE7=Trường Vũ and Hồng Trúc - Dấu chân kỷ niệm
TTITLE8=Trường Vũ - Sao nỡ đành phụ nhau
TTITLE9=Trường Vũ - Tận cùng nỗi nhớ
EXTD=
EXTT0=
EXTT1=
EXTT2=
EXTT3=
EXTT4=
EXTT5=
EXTT6=
EXTT7=
EXTT8=
EXTT9=
PLAYORDER=
